<mxfile host="app.diagrams.net" modified="2024-03-21T14:48:53.053Z" agent="Mozilla/5.0 (Macintosh; Intel Mac OS X 10_15_7) AppleWebKit/537.36 (KHTML, like Gecko) Chrome/122.0.0.0 Safari/537.36" version="24.0.7" etag="lTn4URv2Ak9abTyEKQkO" type="github">
  <diagram name="PaginÄƒ-1" id="MKnuGG16jQx2wrsOF3L4">
    <mxGraphModel>
      <root>
        <mxCell id="0" />
        <mxCell id="1" parent="0" />
      </root>
    </mxGraphModel>
  </diagram>
</mxfile>
